# xmcd
#
# Track frame offsets: 
#        150
#        32399
#        50693
#        73822
#        92198
#        119106
#        131955
#        149258
#        168985
#        191212
#        213954
#        241604
#
# Disc length: 3284 seconds
#
# Revision: 0
# Processed by: cddbd v1.5.2PL0 Copyright (c) Steve Scherf et al.
# Submitted via: ExactAudioCopyFreeDBPlugin 1.0
#
DISCID=b70cd20c
DTITLE=The New Mexican - This Is The New Mexican 
DYEAR=2015
DGENRE=Country
TTITLE0=This Is...
TTITLE1=The New Mexican
TTITLE2=Cigz and Whiskey
TTITLE3=Times Change
TTITLE4=Sierra Hwy
TTITLE5=Sinkin' Sand
TTITLE6=Azzhole
TTITLE7=Help Myself
TTITLE8=Xmas Coffee
TTITLE9=Wine and Whiskey
TTITLE10=Not My Momma
TTITLE11=Givin' Up The Ghost
EXTD=
EXTT0=
EXTT1=
EXTT2=
EXTT3=
EXTT4=
EXTT5=
EXTT6=
EXTT7=
EXTT8=
EXTT9=
EXTT10=
EXTT11=
PLAYORDER=
